<svg width="83" height="24" viewBox="0 0 83 24" fill="none" xmlns="http://www.w3.org/2000/svg">
<path fill-rule="evenodd" clip-rule="evenodd" d="M9.13104 14.844H4.56555V19.4095H9.13104V23.975H13.6965V10.2785H9.13104V14.844Z" fill="#041C2C"/>
<path fill-rule="evenodd" clip-rule="evenodd" d="M4.56549 10.2786H9.13098V5.71313H4.56549V1.14764H0V14.8441H4.56549V10.2786Z" fill="#041C2C"/>
<path fill-rule="evenodd" clip-rule="evenodd" d="M29.8379 12.7734C29.8379 10.7027 28.4658 9.35555 26.6945 9.35555C24.973 9.35555 23.5261 10.6279 23.5261 12.7734C23.5261 14.6196 24.7735 16.1913 26.6695 16.1913C28.4159 16.2163 29.8379 14.8441 29.8379 12.7734ZM23.6009 18.0874V19.5094H19.9585V1.24744H23.6009V7.55929H23.8753C24.499 6.7859 25.5967 5.88777 27.6175 5.88777C31.0105 5.88777 33.5552 8.90648 33.5552 12.7485C33.5552 16.6653 30.8109 19.6341 27.4429 19.6341C25.5718 19.6341 24.524 18.9106 23.9003 18.0874H23.6009Z" fill="#041C2C"/>
<path fill-rule="evenodd" clip-rule="evenodd" d="M39.2931 5.98758V8.08321H39.5177C40.0915 6.96055 41.3888 5.98758 42.8856 5.98758H43.9335V9.5801H42.5863C40.5904 9.5801 39.2931 10.8275 39.2931 13.2475V19.4845H35.6757V5.98758H39.2931Z" fill="#041C2C"/>
<path fill-rule="evenodd" clip-rule="evenodd" d="M47.5761 1.97089C47.5761 0.873181 48.4493 0 49.6218 0C50.7694 0 51.6426 0.873181 51.6426 1.97089C51.6426 3.09355 50.7694 3.96674 49.6218 3.96674C48.4493 3.94179 47.5761 3.09355 47.5761 1.97089ZM45.8297 9.23077V5.73805H51.6177V19.2599H48.1V9.23077H45.8297Z" fill="#041C2C"/>
<path fill-rule="evenodd" clip-rule="evenodd" d="M63.867 12.5988C63.867 10.7527 62.6196 9.20587 60.7485 9.20587C58.9772 9.20587 57.5801 10.578 57.5801 12.5988C57.5801 14.6695 58.9523 16.0416 60.6986 16.0416C62.445 16.0416 63.867 14.7693 63.867 12.5988ZM63.8171 18.0624L63.5427 17.8129C62.919 18.6113 61.8462 19.4845 59.8005 19.4845C56.4325 19.4595 53.8878 16.4657 53.8878 12.6238C53.8878 8.70691 56.657 5.7381 60.025 5.7381C61.8961 5.7381 62.8691 6.46159 63.5677 7.28488H63.8421V5.7381H67.4346V24.0001H63.8171V17.8129V18.0624Z" fill="#041C2C"/>
<path fill-rule="evenodd" clip-rule="evenodd" d="M70.1038 9.82956C70.1038 9.50523 70.3532 9.2308 70.7275 9.2308C71.1017 9.2308 71.3512 9.50523 71.3512 9.82956C71.3512 10.1539 71.1017 10.4283 70.7275 10.4283C70.3532 10.4533 70.1038 10.1788 70.1038 9.82956Z" fill="#041C2C"/>
<path fill-rule="evenodd" clip-rule="evenodd" d="M72.3492 6.33676H73.4719V6.71098H73.5467C73.6964 6.48645 73.9958 6.23697 74.4698 6.23697C74.9937 6.23697 75.343 6.48645 75.5426 6.81077H75.6174C75.817 6.48645 76.1912 6.23697 76.7401 6.23697C77.5883 6.23697 78.1871 6.86067 78.1871 7.63406V10.3534H77.0644V8.03323C77.0644 7.55921 76.8149 7.33468 76.4657 7.33468C76.1164 7.33468 75.842 7.58416 75.842 8.03323V10.3534H74.7193V7.93343C74.7193 7.55921 74.4449 7.33468 74.0956 7.33468C73.7463 7.33468 73.4719 7.60911 73.4719 8.03323V10.3783H72.3492V6.33676Z" fill="#041C2C"/>
<path fill-rule="evenodd" clip-rule="evenodd" d="M79.8835 8.13302L78.6361 6.23697H79.9334L80.582 7.38458H80.6818L81.3305 6.23697H82.6278L81.4303 8.20786L82.6777 10.3534H81.3554L80.6569 8.9563H80.582L79.8835 10.3534H78.5862" fill="#041C2C"/>
</svg>
